<svg xmlns="http://www.w3.org/2000/svg" width="356" height="200" viewBox="0 0 356 200" version="1.1">
	<rect x="0" y="0" width="100%" height="100%" fill="#FFFFFF" />
	<path d="M 170.250 27.662 C 168.003 28.569, 168.928 31.198, 173.076 35.699 C 180.603 43.865, 182.038 52.424, 177.510 62.151 C 174.724 68.136, 174.109 78.075, 176.153 84.101 C 177.719 88.718, 180.821 93, 182.599 93 C 185.241 93, 185.241 90.125, 182.599 84.824 C 179.108 77.818, 179.135 71.323, 182.686 64 C 187.973 53.097, 185.882 41.252, 176.962 31.574 C 172.666 26.914, 172.436 26.780, 170.250 27.662 M 199.053 43.436 C 198.185 44.482, 198.152 45.416, 198.931 46.870 C 201.446 51.570, 200.273 55.592, 194.599 61.720 C 188.103 68.736, 186.473 73.445, 188.029 80.700 C 189.403 87.108, 192.415 92, 194.985 92 C 197.581 92, 197.586 89.573, 195 84.500 C 192.825 80.234, 192.388 74.012, 194.045 70.915 C 194.620 69.841, 197.067 66.985, 199.483 64.570 C 204.098 59.955, 206.615 53.719, 205.485 49.701 C 203.356 42.130, 201.576 40.396, 199.053 43.436 M 158.231 45.392 C 157.319 47.395, 157.463 48.109, 159.074 49.567 C 160.143 50.534, 161.519 53.002, 162.133 55.051 C 163.117 58.334, 162.938 59.456, 160.625 64.509 C 159.181 67.662, 158 72.039, 158 74.236 C 158 83.683, 171.142 98.006, 173.698 91.345 C 174.139 90.196, 173.196 88.776, 170.617 86.708 C 166.905 83.730, 163 77.476, 163 74.510 C 163 73.646, 164.125 70.267, 165.500 67 C 166.875 63.733, 167.993 59.359, 167.984 57.280 C 167.965 53.061, 164.600 46.432, 161.416 44.343 C 159.537 43.111, 159.224 43.214, 158.231 45.392 M 129.330 100.582 C 128.397 103.013, 129.722 117.733, 131.482 124.500 C 133.698 133.016, 138.175 141.657, 143.518 147.730 L 148.119 152.959 127.310 153.230 C 107.020 153.493, 106.492 153.553, 106.200 155.604 C 105.766 158.641, 115.581 167.283, 122.753 170.179 C 128.420 172.467, 129.122 172.504, 173 172.806 C 220.012 173.131, 229.505 172.559, 238.029 168.892 C 245.898 165.507, 252.598 156.259, 248.885 153.908 C 248.123 153.425, 238.583 153.024, 227.683 153.015 L 207.867 153 212.183 148.631 C 216.302 144.462, 216.829 144.236, 223.662 143.696 C 240.216 142.390, 251.354 132.129, 249.689 119.720 C 248.564 111.329, 243.553 107.644, 234.303 108.405 L 228.106 108.915 227.803 104.207 L 227.500 99.500 178.722 99.240 C 134.768 99.007, 129.884 99.139, 129.330 100.582 M 134.576 104.877 C 134.270 105.371, 134.447 109.089, 134.968 113.138 C 136.892 128.088, 141.006 137.094, 150.093 146.250 L 156.793 153 177.753 153 L 198.712 153 203.239 149.544 C 214.063 141.279, 221.499 125.970, 222.222 110.464 L 222.500 104.500 178.815 104.240 C 153.754 104.090, 134.894 104.362, 134.576 104.877 M 231.570 114.339 C 227.743 115.494, 227.595 115.710, 225.881 122.683 C 224.913 126.620, 223.163 131.721, 221.991 134.018 C 220.819 136.314, 220.073 138.406, 220.333 138.666 C 221.407 139.741, 233.284 136.557, 236.865 134.234 C 241.854 131, 244.004 127.258, 243.985 121.846 C 243.967 116.933, 243.419 115.783, 240.316 114.150 C 237.700 112.773, 236.690 112.795, 231.570 114.339 M 133.020 158.773 L 114.539 159.047 118.890 161.927 C 126.613 167.040, 127.721 167.127, 181 166.802 C 234.371 166.476, 233.680 166.543, 240.668 161.046 L 243.219 159.040 197.360 158.770 C 172.137 158.621, 143.184 158.623, 133.020 158.773" stroke="none" fill="#000000" fill-rule="evenodd"/>
</svg>