<svg xmlns="http://www.w3.org/2000/svg" width="875" height="1080" viewBox="0 0 875 1080" version="1.1">
	<rect x="0" y="0" width="100%" height="100%" fill="#FFFFFF" />
	<path d="M 447 17.919 C 442.363 18.860, 439.187 20.589, 435.250 24.316 C 431.383 27.976, 430.973 29.719, 434.527 27.391 C 438.398 24.854, 449.771 25.921, 454.878 29.300 C 463.705 35.142, 465.424 47.726, 459.112 60.304 C 457.402 63.712, 451.948 72.125, 446.992 79 C 428.628 104.474, 424.821 117.755, 431.083 134.493 C 434.219 142.875, 435.628 143.221, 436.229 135.758 C 437.182 123.919, 445.555 107.365, 459.803 89.152 C 475.682 68.854, 480 60.069, 480 48.062 C 480 39.856, 477.501 32.271, 473 26.814 C 467.592 20.257, 455.635 16.166, 447 17.919 M 445 21.721 C 440.677 22.496, 440.921 23.496, 445.475 23.672 C 459.055 24.198, 467.356 35.037, 464.829 48.943 C 463.442 56.573, 460.110 63.141, 449.264 79.625 C 438.574 95.874, 434.756 103.995, 432.960 114.309 C 431.364 123.475, 432.065 125.688, 434.709 119.830 C 437.759 113.074, 444.378 103.663, 452.527 94.500 C 462.827 82.918, 471.088 71.425, 474.373 64.104 C 476.930 58.407, 477.190 56.890, 476.780 50.107 C 475.591 30.491, 462.299 18.618, 445 21.721 M 426.954 74.411 C 419.692 80.185, 416.159 84.059, 410.135 92.858 C 400.657 106.699, 395.994 121.705, 396.008 138.315 C 396.022 155.403, 399.358 168.622, 409.614 192.226 C 426.678 231.498, 428.784 237.885, 429.656 253 C 430.359 265.181, 427.988 277.078, 421.606 293.394 C 419.048 299.935, 417.114 305.447, 417.309 305.642 C 417.863 306.196, 423.323 298.165, 427.263 291 C 433.615 279.448, 435.502 271.419, 435.488 256 C 435.473 239.259, 434.149 234.238, 422.890 208.215 C 408.222 174.312, 406.840 170.819, 404.261 161.115 C 402.172 153.258, 401.693 149.123, 401.640 138.500 C 401.566 123.800, 403.099 116.171, 408.493 104.378 C 411.665 97.446, 419.814 84.481, 420.542 85.209 C 420.742 85.409, 419.922 89.156, 418.720 93.536 C 416.818 100.470, 416.542 103.958, 416.587 120.500 C 416.633 137.666, 416.885 140.417, 419.203 149 C 423.337 164.308, 428.449 176.887, 441.553 204 C 456.349 234.612, 459 242.715, 459.732 259.555 C 460.147 269.119, 459.902 272.840, 458.549 277.555 C 453.918 293.690, 443.140 304.185, 422.731 312.433 C 417.379 314.596, 413 316.690, 413 317.088 C 413 317.888, 418.740 317.375, 426.719 315.861 C 438.531 313.620, 451.384 304.393, 457.989 293.415 C 463.925 283.546, 465.945 276.033, 465.974 263.708 C 466.022 243.826, 462.703 233.454, 444.949 198 C 428.690 165.529, 423.671 150.346, 422.125 128.947 C 420.647 108.493, 423.183 90.855, 429.522 77.505 C 431.349 73.658, 432.746 70.412, 432.626 70.293 C 432.506 70.173, 429.954 72.026, 426.954 74.411 M 387 346.641 C 385.075 346.817, 376.525 347.456, 368 348.060 C 321.206 351.376, 264.495 364.062, 221.014 380.940 C 194.359 391.287, 186.017 395.403, 156.500 412.772 C 130.227 428.231, 124.002 433.498, 118.759 444.701 C 116.152 450.273, 115.612 452.936, 114.780 464.324 C 114.250 471.571, 114.070 482.900, 114.379 489.500 C 116.157 527.491, 134.531 594.690, 157.171 646 C 163.673 660.736, 181.640 696.104, 185.536 701.839 C 186.877 703.812, 187.642 705.744, 187.237 706.132 C 186.832 706.521, 182.225 707.563, 177 708.449 C 164.491 710.569, 140.256 716.897, 122.646 722.642 C 71.248 739.408, 30.787 766.348, 19.473 791.335 C 14.575 802.152, 14.271 814.224, 18.633 824.664 C 29.111 849.740, 69.377 875.103, 130.502 895.128 C 145.723 900.114, 147.059 900.769, 158 908.607 C 186.246 928.842, 217.805 944.586, 257.896 958.441 C 281.832 966.714, 326.340 975.789, 362 979.669 C 382.664 981.917, 451.107 982.260, 471 980.215 C 502.851 976.940, 531.788 972.538, 548.890 968.365 C 570.656 963.053, 602.890 951.438, 623.500 941.479 C 647.421 929.920, 675.084 911.483, 690.610 896.750 C 696.618 891.049, 697.053 890.837, 716.610 884.119 C 740.587 875.881, 748.776 872.524, 769 862.639 C 790.849 851.960, 801.377 844.793, 814.610 831.587 C 823.417 822.798, 826.423 819.049, 829.110 813.500 C 832.338 806.835, 832.500 805.970, 832.500 795.425 C 832.500 784.428, 832.470 784.289, 828.301 775.874 C 823.260 765.701, 815.153 756.500, 802.862 747.001 C 790.667 737.576, 772.195 726.762, 757.211 720.276 C 744.382 714.723, 706.668 701.714, 699.769 700.462 C 696.281 699.829, 696.128 699.655, 697.432 697.793 C 700.796 692.991, 709.380 688.963, 746 675.003 C 788.408 658.838, 808.975 647.189, 827.082 629.082 C 842.486 613.678, 851.712 597.196, 857.259 575.172 C 860.385 562.757, 860.349 539.400, 857.182 526.500 C 853.990 513.497, 845.550 496.982, 837.736 488.449 C 817.485 466.334, 799.886 457.459, 774 456.307 C 753.722 455.404, 736.544 459.291, 724.565 467.492 L 718.131 471.897 717.572 466.198 C 715.276 442.809, 703.085 424.759, 678.500 408.347 C 633.103 378.042, 571.530 358.868, 494.500 351.050 C 462.750 347.828, 401.472 345.314, 387 346.641 M 373 353.544 C 339.959 355.588, 318.191 359.315, 276 370.154 C 240.096 379.378, 220.778 386.294, 192.500 400.049 C 152.963 419.280, 126.923 437.843, 124.012 448.871 C 122.380 455.050, 123.717 457.568, 133.591 466.915 C 144.806 477.531, 154.269 483.687, 174.500 493.529 C 221.008 516.155, 274.130 530.058, 339 536.579 C 360.386 538.729, 428.504 539.631, 452.850 538.086 C 538.587 532.647, 608.018 516.377, 660.673 489.387 C 679.856 479.554, 702.171 462.692, 706.390 454.842 L 708.280 451.325 704.415 443.912 C 699.429 434.352, 687.761 422.540, 675 414.138 C 664.698 407.353, 637.671 393.336, 623.928 387.648 C 604.025 379.411, 568.659 369.256, 545.500 365.128 C 524.338 361.355, 495.425 357.976, 467.500 356.011 C 458.700 355.392, 445.781 354.236, 438.792 353.443 C 423.854 351.747, 401.500 351.782, 373 353.544 M 371 364.151 C 333.400 366.753, 279.195 377.464, 244.768 389.094 C 197.086 405.202, 175.637 418.266, 168.388 435.613 C 163.405 447.539, 173.344 463.891, 193.519 476.961 C 222.355 495.641, 268.179 511.471, 315 518.926 C 321.875 520.021, 345.500 522.336, 367.500 524.071 C 417.831 528.039, 462.386 528.644, 486 525.680 C 528.614 520.330, 557.381 512.886, 591 498.509 C 621.499 485.466, 648.344 466.140, 655.445 452.113 C 658.376 446.325, 659.666 438.362, 658.596 432.662 C 657.576 427.221, 650.564 417.593, 644.061 412.705 C 628.626 401.102, 598.003 389.030, 566.272 382.038 C 557.079 380.013, 533.403 375.944, 531.500 376.063 C 530.950 376.097, 540.850 378.751, 553.500 381.960 C 582.314 389.269, 601.070 395.505, 616.652 402.957 C 630.860 409.752, 636.529 413.388, 643.829 420.389 C 656.664 432.697, 656.549 443.915, 643.452 457.329 C 637.492 463.433, 630.884 468.637, 621.731 474.432 L 615.963 478.085 616.593 474.145 C 617.963 465.576, 612.181 458.138, 598.984 451.492 C 580.870 442.370, 558.985 437.680, 510 432.425 C 478.934 429.093, 392.615 429.666, 352.972 433.469 C 333.192 435.366, 318.015 437.971, 297.631 442.968 C 257.472 452.813, 227.874 466.366, 221.249 477.946 C 219.816 480.451, 218.522 482.664, 218.374 482.865 C 218.225 483.066, 215.043 481.535, 211.302 479.463 C 186.416 465.678, 174.985 454.125, 175.009 442.783 C 175.022 437.250, 179.354 429.589, 185.159 424.835 C 203.044 410.188, 228.401 399.070, 273.975 385.893 C 303.709 377.296, 321.530 373.600, 357.500 368.573 C 375.100 366.113, 390.625 363.914, 392 363.687 C 396.291 362.976, 384.077 363.246, 371 364.151 M 390 434.603 C 388.625 434.769, 382.633 435.197, 376.684 435.553 C 370.735 435.910, 366.023 436.357, 366.213 436.546 C 366.402 436.736, 371.044 437.562, 376.529 438.382 C 408.557 443.173, 432.829 458.900, 427.581 471.460 C 425.528 476.373, 419.568 480.577, 407.516 485.613 C 377.465 498.169, 369.997 502.171, 367.458 507.082 C 365.274 511.305, 365.675 513.894, 368.994 516.994 C 372.616 520.378, 375.696 520.724, 412.854 521.926 C 448.342 523.074, 494.652 520.468, 466.286 518.920 C 457.110 518.418, 454.202 517.860, 450.286 515.844 C 443.584 512.396, 440.694 507.867, 441.268 501.711 C 441.915 494.761, 445.538 490.896, 461.151 480.500 C 468.585 475.550, 476.078 470.304, 477.802 468.841 C 482.308 465.020, 486 459.175, 486 455.863 C 486 449.756, 474.373 441.150, 459.282 436.086 C 453.476 434.138, 451.054 434.010, 422.782 434.150 C 406.127 434.232, 391.375 434.436, 390 434.603 M 499.193 449.207 C 498.251 450.149, 498.553 450.865, 500.572 452.476 C 502 453.614, 503.475 456.097, 503.866 458.019 C 505.210 464.626, 513 462.333, 513 455.330 C 513 452.613, 512.379 451.592, 509.750 449.989 C 506.099 447.763, 501.014 447.386, 499.193 449.207 M 526.441 449.441 C 522.138 452.637, 529.820 456.772, 534.954 454.025 C 537.410 452.710, 537.521 451.664, 535.429 449.571 C 533.464 447.606, 528.999 447.542, 526.441 449.441 M 703.191 467.002 C 691.176 480.299, 675.918 490.806, 652 502.256 C 633.688 511.022, 623.561 514.929, 603.500 520.965 C 522.873 545.227, 419.856 553.170, 325 542.438 C 266.712 535.843, 208.579 519.114, 165.084 496.418 C 148.363 487.692, 141.285 482.537, 129.750 470.680 C 118.265 458.875, 119.103 457.059, 121.963 487.565 C 126 530.627, 134.112 563.956, 152.738 614 C 167.493 653.643, 186.627 691.504, 208.330 724 C 222.497 745.213, 243.853 771.895, 259.840 788.358 C 267.644 796.394, 293.793 820.065, 299.325 824.101 C 309.144 831.264, 358.442 842.900, 392.439 846.079 C 408.192 847.552, 445.043 846.777, 463 844.596 C 497.723 840.377, 539.128 828.966, 549.500 820.756 C 563.930 809.334, 588.222 783.726, 605.711 761.500 C 644.498 712.207, 673.264 654.532, 693.476 585.536 C 703.678 550.709, 708.936 522.563, 710.970 491.902 C 711.816 479.146, 711.295 459.991, 710.103 460.010 C 709.771 460.015, 706.661 463.161, 703.191 467.002 M 752 465.554 C 742.629 467.565, 737.942 469.545, 729.754 474.952 C 718.581 482.330, 718 483.076, 718 490.030 C 718 497.909, 715.273 524.479, 713.450 534.360 C 712.653 538.684, 712 542.422, 712 542.667 C 712 543.156, 718.263 535.726, 730.264 521 C 738.349 511.078, 752.784 495.363, 751.336 498.057 C 748.954 502.491, 725.528 534.091, 715.161 546.855 C 710.057 553.139, 709.013 555.132, 707.993 560.538 C 707.336 564.018, 707.100 567.352, 707.467 567.947 C 707.835 568.542, 709.984 569.971, 712.242 571.124 C 715.417 572.743, 717.595 573.115, 721.839 572.763 C 726.581 572.370, 727.778 571.819, 730.618 568.720 C 734.163 564.851, 735.760 560.112, 738.439 545.500 C 740.310 535.292, 744.195 526.126, 748.938 520.723 C 750.716 518.698, 755.161 515.569, 758.815 513.771 C 764.533 510.955, 766.505 510.500, 772.979 510.500 C 779.353 510.500, 781.263 510.927, 785.500 513.294 C 788.250 514.831, 792.075 517.443, 794 519.098 L 797.500 522.107 793.175 519.995 C 787.603 517.274, 785.527 517.926, 790.323 520.891 C 794.152 523.257, 795.438 524.840, 792.066 523.035 C 791.002 522.466, 789.314 522.013, 788.316 522.029 C 786.901 522.052, 787.271 522.759, 789.988 525.227 C 792.072 527.121, 792.675 528.074, 791.488 527.595 C 786.381 525.538, 778.551 523, 777.310 523 C 776.544 523, 777.476 524.543, 779.412 526.479 C 793.134 540.201, 796.013 567.982, 785.725 587.401 C 781.813 594.786, 771.806 605.113, 763 610.852 C 759.425 613.182, 747.050 619.847, 735.500 625.664 C 703.531 641.764, 682.255 655.204, 674.250 664.354 C 669.193 670.136, 670.415 670.640, 676.750 665.386 C 682.284 660.797, 682.212 660.916, 674.840 668.559 C 668.405 675.231, 666.187 678.498, 660.965 689 C 657.546 695.875, 652.728 705.010, 650.258 709.300 C 645.819 717.009, 645.782 717.151, 647.027 721.597 C 648.606 727.237, 653.048 733.456, 656.931 735.464 C 665.908 740.107, 676.271 734.155, 683.374 720.277 C 686.085 714.980, 690.204 702.871, 689.526 702.192 C 689.179 701.845, 685.235 705.373, 680.763 710.031 C 672.420 718.719, 671.707 718.528, 677.299 709.105 C 683.288 699.011, 688.875 693.928, 701.152 687.402 C 714.049 680.546, 712.709 681.123, 743.500 669.149 C 771.999 658.066, 786.791 651.392, 797.296 644.876 C 825.415 627.436, 842.765 604.294, 850.162 574.359 C 852.879 563.361, 853.330 559.763, 853.272 549.500 C 853.066 512.987, 831.770 482.265, 798.164 470.001 C 782.624 464.329, 765.425 462.673, 752 465.554 M 297.176 477.059 C 295.713 477.645, 294.983 478.641, 295.207 479.745 C 295.482 481.106, 296.518 481.480, 299.820 481.411 C 304.910 481.304, 306.920 479.813, 305.035 477.542 C 303.612 475.828, 300.694 475.648, 297.176 477.059 M 258.689 481.581 C 256.703 482.674, 255.969 483.770, 256.189 485.314 C 256.808 489.661, 268.172 490.140, 273.179 486.031 C 275.064 484.484, 275.292 483.785, 274.396 482.313 C 272.900 479.855, 262.689 479.380, 258.689 481.581 M 484.750 506.054 C 480.570 508.551, 484.270 511.555, 490.629 510.828 C 492.937 510.564, 493.500 510.010, 493.500 508 C 493.500 505.856, 493.001 505.465, 490 505.255 C 488.075 505.120, 485.712 505.480, 484.750 506.054 M 682 517.614 C 675.675 524.506, 667.125 533.811, 663 538.293 L 655.500 546.441 661.928 541.470 C 670.563 534.793, 681.225 523.960, 686.445 516.560 C 691.650 509.181, 694.353 504.986, 693.865 505.041 C 693.664 505.064, 688.325 510.722, 682 517.614 M 679.343 534.250 C 673.805 540.438, 667.075 547.967, 664.387 550.983 L 659.500 556.465 667.416 549.983 C 675.327 543.504, 685.899 531.974, 689.307 526.109 C 692.666 520.328, 689.454 522.952, 679.343 534.250 M 143.761 525.552 C 146.164 530.047, 158.924 542.620, 169.165 550.583 C 175.117 555.213, 180.252 559, 180.577 559 C 181.205 559, 172.599 550.858, 154.082 533.935 C 147.802 528.196, 143.158 524.423, 143.761 525.552 M 752.081 527.718 C 748.324 532.276, 746.577 537.390, 744.128 551 C 741.113 567.761, 737.829 573.774, 729.599 577.606 C 721.603 581.330, 713.195 580.477, 707.902 575.406 L 705.153 572.772 702.996 580.136 C 697.380 599.308, 695.215 605.914, 688.337 624.847 C 684.272 636.038, 680.306 646.726, 679.524 648.597 C 678.742 650.469, 678.338 652, 678.627 652 C 678.916 652, 681.705 650.066, 684.826 647.703 C 687.947 645.340, 692.750 642.021, 695.500 640.328 C 701.905 636.383, 741.292 615.611, 746.461 613.452 C 755.593 609.636, 772.145 596.009, 778.020 587.471 C 779.585 585.196, 781.840 580.446, 783.031 576.917 C 785.986 568.156, 785.502 551.512, 782.030 542.500 C 779.116 534.936, 771.300 526.716, 765.500 525.115 C 758.170 523.092, 755.461 523.618, 752.081 527.718 M 148.770 543.725 C 152.976 548.749, 171.683 565.716, 174.840 567.370 C 175.753 567.848, 169.797 561.773, 161.605 553.870 C 145.747 538.570, 141.925 535.550, 148.770 543.725 M 821.517 608.835 C 819.499 612.675, 816.272 617.658, 814.346 619.909 C 812.420 622.159, 811.299 624, 811.855 624 C 813.523 624, 819.552 615.929, 822.949 609.149 C 827.311 600.442, 826.070 600.170, 821.517 608.835 M 808.564 620.997 C 805.366 625.369, 800.305 631.258, 797.318 634.084 C 794.331 636.909, 792.135 639.469, 792.439 639.773 C 793.385 640.718, 809.396 623.760, 812.362 618.671 C 813.910 616.016, 814.997 613.664, 814.778 613.445 C 814.559 613.225, 811.763 616.624, 808.564 620.997 M 791.500 634.658 C 788.200 637.720, 781.788 643.137, 777.250 646.695 C 768.896 653.248, 767.162 655.037, 771.250 652.887 C 778.770 648.933, 791.802 637.881, 796.175 631.750 C 797.254 630.237, 797.993 629.020, 797.818 629.045 C 797.643 629.070, 794.800 631.595, 791.500 634.658 M 698 649.500 C 697.293 650.352, 696.940 651.273, 697.215 651.548 C 697.490 651.823, 698.293 651.352, 699 650.500 C 699.707 649.648, 700.060 648.727, 699.785 648.452 C 699.510 648.177, 698.707 648.648, 698 649.500 M 690 655.500 C 688.712 656.871, 687.884 658.217, 688.159 658.492 C 688.434 658.767, 689.712 657.871, 691 656.500 C 692.288 655.129, 693.116 653.783, 692.841 653.508 C 692.566 653.233, 691.288 654.129, 690 655.500 M 692.046 709.380 C 691.520 710.763, 690.138 715.029, 688.974 718.860 C 685.985 728.700, 681.417 735.878, 675.716 739.693 C 667.200 745.392, 657.607 745.106, 650.588 738.943 C 647.033 735.822, 643 728.416, 643 725.011 C 643 723.905, 642.655 723, 642.234 723 C 641.813 723, 637.500 729.293, 632.651 736.985 C 622.252 753.480, 612.463 766.755, 600.609 780.436 C 595.874 785.901, 592 790.739, 592 791.186 C 592 791.634, 593.913 792.003, 596.250 792.007 C 601.976 792.016, 615.406 795.320, 622.537 798.474 C 628.679 801.190, 635.642 806.254, 640.313 811.400 C 643.610 815.032, 647.979 823.631, 647.985 826.500 C 648.008 837.782, 635.726 850.461, 615.500 860.033 C 604.991 865.006, 583.362 872.379, 569 875.884 C 553.655 879.629, 519.359 884.425, 488 887.212 C 468.626 888.933, 383.376 888.921, 365.500 887.195 C 358.350 886.504, 347.550 885.461, 341.500 884.877 C 314.774 882.297, 271.572 873.266, 253.609 866.505 C 232.404 858.523, 217.645 848.034, 212.890 837.565 C 205.770 821.889, 219.061 802.695, 242.500 794.802 C 246.350 793.506, 249.672 792.068, 249.882 791.606 C 250.093 791.145, 246.268 786.216, 241.382 780.652 C 232.400 770.423, 207.147 736.430, 197.252 721.250 C 192.770 714.375, 191.505 713.070, 189.685 713.446 C 188.483 713.695, 181.650 715.098, 174.500 716.564 C 159.687 719.602, 132.268 727.203, 117.500 732.368 C 84.417 743.936, 59.325 757.948, 42.947 774 C 31.228 785.486, 26.589 792.293, 24.380 801.243 C 18.963 823.195, 36.488 843.922, 79 865.843 C 107.413 880.494, 153.942 896.208, 199.045 906.386 C 218.550 910.787, 262.957 919.503, 273.500 920.999 C 277.900 921.624, 290.725 923.653, 302 925.510 C 335.646 931.050, 339.672 931.313, 381.451 930.696 C 435.818 929.894, 468.245 928.392, 482.500 926.017 C 489.100 924.917, 508.450 921.763, 525.500 919.008 C 620.570 903.646, 680.231 889.738, 726.920 872.054 C 768.185 856.424, 790.163 844.311, 807.924 827.409 C 830.114 806.293, 831.134 787.395, 811.287 765.115 C 792.832 744.397, 746.813 720.612, 704.500 709.923 C 700.100 708.811, 695.713 707.669, 694.751 707.384 C 693.539 707.025, 692.708 707.638, 692.046 709.380 M 595.293 740.625 C 585.301 745.880, 580.631 748.964, 581.440 749.774 C 582.304 750.638, 598.092 742.347, 601.962 738.997 C 603.866 737.349, 605.123 736, 604.755 736 C 604.387 736, 600.129 738.081, 595.293 740.625 M 567 781.386 C 561.775 784.273, 553.225 788.997, 548 791.885 C 537.266 797.818, 540.140 797.888, 552.727 792 C 560.234 788.488, 575.316 778.915, 576.591 776.853 C 577.326 775.664, 577.552 775.557, 567 781.386 M 271.500 788.373 C 278.720 795.058, 288.548 801.458, 299.333 806.498 C 312.972 812.871, 316.175 813.042, 304.500 806.773 C 299 803.819, 289.325 798.099, 283 794.060 C 266.457 783.497, 265.978 783.260, 271.500 788.373 M 566 793.007 C 555.311 800.155, 537.492 809.534, 529.546 812.193 C 520.115 815.350, 521.412 815.867, 531.648 813.030 C 541.093 810.413, 552.109 805.227, 559.612 799.867 C 571.650 791.266, 576.679 785.865, 566 793.007 M 249.500 799.928 C 231.907 806.199, 220 817.673, 220 828.356 C 220 839.355, 232.833 850.220, 257.276 859.916 C 261.553 861.612, 265.527 863, 266.108 863 C 266.688 863, 266.226 861.484, 265.082 859.632 C 261.287 853.492, 262.932 846.442, 269.291 841.592 C 274.311 837.763, 283.199 834.022, 290.460 832.682 L 296.995 831.475 289.748 825.988 C 285.763 822.969, 277.148 815.438, 270.605 809.250 C 262.881 801.947, 257.969 798.026, 256.604 798.073 C 255.447 798.113, 252.250 798.948, 249.500 799.928 M 284.628 801.958 C 298.238 811.967, 314.858 820.421, 325 822.495 C 329.483 823.412, 327.987 821.876, 322.230 819.651 C 319.882 818.743, 309.809 813.725, 299.845 808.500 C 289.881 803.275, 281.476 799, 281.167 799 C 280.859 799, 282.416 800.331, 284.628 801.958 M 569.176 813.113 C 561.430 820.609, 556.406 826.174, 557.176 826.408 C 557.904 826.629, 560.975 827.565, 564 828.487 C 578.972 833.051, 589.716 845.479, 586.956 855.040 C 585.724 859.307, 583.723 861.740, 578.079 865.828 C 575.671 867.572, 574.105 869, 574.600 869 C 575.095 869, 581.575 867.195, 589 864.989 C 603.514 860.677, 621.588 852.396, 629.222 846.560 C 639.042 839.054, 641.600 829.491, 636.105 820.827 C 630.073 811.315, 618.517 805.599, 599.295 802.621 C 580.726 799.743, 584.269 798.509, 569.176 813.113 M 553 827.764 C 553 828.259, 555.025 829.126, 557.500 829.693 C 562.304 830.792, 563.453 830.494, 559.750 829.109 C 554.837 827.271, 553 826.905, 553 827.764 M 549.089 831.326 C 547.449 832.521, 544.620 834.701, 542.804 836.168 C 534.533 842.849, 508.846 856.811, 498.102 860.465 C 482.951 865.618, 461.336 868.856, 431 870.516 C 403.986 871.995, 366.201 865.574, 336.360 854.434 C 323.327 849.569, 319.114 847.353, 309.096 840.091 C 299.785 833.343, 298.223 832.999, 289.902 835.862 C 268.950 843.070, 262.259 851.746, 270.563 860.938 C 274.671 865.485, 278.141 866.799, 295.500 870.381 C 350.261 881.682, 415.772 884.751, 490.090 879.496 C 544.168 875.673, 556.338 873.887, 567.826 868.088 C 584.324 859.760, 587.403 850.287, 576.835 840.370 C 572.651 836.443, 570.712 835.452, 560.393 831.964 L 552.072 829.151 549.089 831.326 M 522 840.154 C 516.622 842.363, 472.874 852.925, 462 854.640 C 444.580 857.387, 411.469 857.179, 391 854.195 C 365.910 850.537, 348.361 847.237, 334.515 843.573 C 327.374 841.682, 321.396 840.270, 321.232 840.435 C 320.638 841.029, 332.194 846.038, 342.160 849.507 C 394.406 867.693, 457.666 867.327, 506.860 848.553 C 516.042 845.050, 526 840.330, 526 839.483 C 526 838.789, 524.854 838.981, 522 840.154 M 663.369 899.979 C 655.597 902.069, 638.272 905.914, 624.869 908.523 C 611.466 911.133, 600.170 913.560, 599.767 913.917 C 598.637 914.917, 616.379 913.278, 631.101 911.022 C 638.376 909.907, 644.500 909.167, 644.710 909.377 C 645.150 909.816, 625.688 916.822, 615.061 920.050 C 611.119 921.247, 608.036 922.369, 608.209 922.543 C 608.656 922.989, 638.951 916.349, 642.333 915.064 C 643.871 914.479, 645.663 914.016, 646.315 914.035 C 648.117 914.089, 614.671 927.701, 606.028 930.431 C 594.720 934.004, 568.897 939.565, 548 942.930 C 506.287 949.645, 459.792 952.554, 396.500 952.407 C 354.972 952.311, 337.876 951.257, 308 946.949 C 278.494 942.694, 215.739 925.281, 180.500 911.571 C 173.329 908.781, 172.005 908.489, 173.983 910.134 C 183.513 918.056, 222.920 937.575, 249.099 947.339 C 286.712 961.368, 333.274 970.239, 386.500 973.517 C 421.961 975.700, 443.935 975.431, 470.670 972.483 C 525.149 966.477, 552.121 961.033, 585.150 949.378 C 596.268 945.455, 625.012 932.398, 635.861 926.342 C 651.423 917.656, 682.290 895.717, 678.424 896.089 C 677.916 896.138, 671.141 897.888, 663.369 899.979 M 0 1040.003 L 0 1080.002 437.750 1079.751 L 875.500 1079.500 875.761 1039.500 L 876.022 999.500 438.011 999.752 L 0 1000.005 0 1040.003 M 0.456 1040 C 0.456 1062.275, 0.588 1071.388, 0.749 1060.250 C 0.910 1049.112, 0.910 1030.888, 0.749 1019.750 C 0.588 1008.612, 0.456 1017.725, 0.456 1040 M 212.200 1027.200 C 211.540 1027.860, 211.014 1028.873, 211.030 1029.450 C 211.047 1030.027, 211.519 1029.713, 212.080 1028.750 C 213.250 1026.741, 217.032 1026.432, 218.800 1028.200 C 220.360 1029.760, 220.335 1033.224, 218.750 1035.002 C 217.687 1036.194, 217.761 1036.206, 219.250 1035.079 C 221.425 1033.434, 221.515 1029.658, 219.429 1027.571 C 217.564 1025.706, 213.883 1025.517, 212.200 1027.200 M 30.447 1029.614 C 30.869 1030.651, 32.474 1035.100, 34.015 1039.500 C 39.025 1053.806, 39.170 1054.114, 40.741 1053.801 C 41.657 1053.618, 43.722 1049.371, 45.991 1043 C 51.052 1028.795, 51.275 1028, 50.200 1028 C 49.685 1028, 47.565 1032.838, 45.488 1038.750 C 43.410 1044.662, 41.395 1049.858, 41.009 1050.296 C 40.624 1050.734, 38.524 1046.037, 36.343 1039.859 C 34.162 1033.681, 31.771 1028.424, 31.030 1028.177 C 30.057 1027.852, 29.895 1028.253, 30.447 1029.614 M 86 1037.935 C 86 1048.629, 86.858 1052.348, 89.567 1053.387 C 92.080 1054.352, 92.658 1053.202, 90.466 1051.599 C 89.003 1050.529, 88.487 1048.618, 88.176 1043.109 C 87.798 1036.413, 87.897 1036, 89.887 1036 C 91.049 1036, 92 1035.550, 92 1035 C 92 1034.450, 91.100 1034, 90 1034 C 88.444 1034, 88 1033.333, 88 1031 C 88 1029.350, 87.550 1028, 87 1028 C 86.400 1028, 86 1031.978, 86 1037.935 M 129.228 1029.230 C 126.871 1030.366, 125.576 1033.508, 126.161 1036.671 C 126.466 1038.317, 130.267 1040.696, 137.073 1043.500 C 140.314 1044.835, 140.183 1048.040, 136.809 1049.934 C 134.628 1051.158, 133.332 1051.235, 129.982 1050.341 C 126.591 1049.436, 125.748 1049.494, 125.300 1050.662 C 124.491 1052.769, 125.246 1053.121, 131.864 1053.721 C 137.576 1054.239, 138.044 1054.110, 140.943 1051.211 C 146.253 1045.901, 144.232 1041.121, 135.515 1038.373 C 129.628 1036.517, 127.859 1034.307, 130.637 1032.276 C 132.908 1030.615, 134.849 1030.673, 138.364 1032.506 C 141.857 1034.328, 141.660 1034.328, 142.359 1032.508 C 143.631 1029.191, 134.196 1026.836, 129.228 1029.230 M 147 1039.477 C 147 1050.606, 147.076 1051.003, 149.492 1052.587 C 151.914 1054.174, 155 1053.953, 155 1052.192 C 155 1051.713, 153.875 1050.808, 152.500 1050.182 C 150.236 1049.151, 150 1048.474, 150 1043.021 C 150 1037.265, 150.110 1037, 152.500 1037 C 154.056 1037, 155 1036.433, 155 1035.500 C 155 1034.567, 154.056 1034, 152.500 1034 C 150.389 1034, 150 1033.533, 150 1031 C 150 1029, 149.500 1028, 148.500 1028 C 147.254 1028, 147 1029.942, 147 1039.477 M 194 1041 C 194 1053.333, 194.103 1054, 196 1054 C 197.704 1054, 198 1053.333, 198 1049.500 C 198 1047.025, 198.338 1045.010, 198.750 1045.022 C 199.162 1045.034, 200.850 1047.058, 202.500 1049.520 C 204.608 1052.665, 206.188 1053.996, 207.814 1053.998 C 210.020 1054, 209.931 1053.719, 205.895 1047.965 L 201.662 1041.931 205.534 1037.965 C 208.708 1034.714, 209.054 1034.007, 207.453 1034.041 C 206.379 1034.063, 203.925 1035.430, 202 1037.078 L 198.500 1040.075 198.202 1034.038 C 197.945 1028.818, 197.640 1028, 195.952 1028 C 194.116 1028, 194 1028.773, 194 1041 M 214.079 1031.177 C 214.122 1033.005, 214.391 1033.919, 214.676 1033.208 C 215.030 1032.326, 215.575 1032.232, 216.393 1032.911 C 217.275 1033.643, 217.580 1033.196, 217.546 1031.217 C 217.516 1029.474, 216.884 1028.409, 215.750 1028.190 C 214.355 1027.922, 214.016 1028.528, 214.079 1031.177 M 215 1030 C 215 1030.550, 215.450 1031, 216 1031 C 216.550 1031, 217 1030.550, 217 1030 C 217 1029.450, 216.550 1029, 216 1029 C 215.450 1029, 215 1029.450, 215 1030 M 212.405 1034.750 C 213.453 1035.987, 215.028 1036.964, 215.905 1036.921 C 217.259 1036.854, 217.273 1036.759, 216 1036.291 C 215.175 1035.987, 213.600 1035.010, 212.500 1034.120 C 210.517 1032.514, 210.516 1032.519, 212.405 1034.750 M 54.229 1034.669 C 52.296 1035.447, 50 1040.521, 50 1044.016 C 50 1047.496, 51.523 1050.883, 53.913 1052.718 C 56.488 1054.695, 65 1054.156, 65 1052.016 C 65 1051.592, 63.028 1051.468, 60.617 1051.740 C 57.072 1052.139, 55.829 1051.829, 54.117 1050.117 C 50.232 1046.232, 51.287 1045, 58.500 1045 C 64.988 1045, 65 1044.995, 65 1042.135 C 65 1036.358, 59.503 1032.547, 54.229 1034.669 M 71.495 1036.414 C 66.990 1040.919, 67.014 1047.105, 71.552 1051.643 C 73.545 1053.636, 74.843 1054.055, 78.261 1053.807 C 80.593 1053.638, 82.381 1053.067, 82.235 1052.539 C 82.089 1052.010, 80.271 1051.700, 78.195 1051.850 C 73.292 1052.204, 70.545 1049.386, 70.545 1044 C 70.545 1038.786, 73.300 1035.827, 77.960 1036.036 C 83.029 1036.262, 83.691 1036.093, 82 1035 C 79.183 1033.179, 74.037 1033.872, 71.495 1036.414 M 96.923 1036.923 C 94.631 1039.216, 94 1040.742, 94 1044 C 94 1049.332, 98.201 1054, 103 1054 C 107.799 1054, 112 1049.332, 112 1044 C 112 1038.668, 107.799 1034, 103 1034 C 100.848 1034, 98.918 1034.928, 96.923 1036.923 M 115 1044 C 115 1050, 115.400 1054, 116 1054 C 116.578 1054, 117 1050.818, 117 1046.453 C 117 1039.118, 117.084 1038.859, 119.994 1037.203 C 121.640 1036.267, 122.990 1035.162, 122.994 1034.750 C 123.004 1033.572, 121.639 1033.864, 119.223 1035.557 C 117.211 1036.966, 117 1036.966, 117 1035.557 C 117 1034.701, 116.550 1034, 116 1034 C 115.400 1034, 115 1038, 115 1044 M 160.261 1035.529 C 157.335 1037.579, 155.897 1043.044, 157.119 1047.471 C 158.264 1051.616, 161.324 1054, 165.500 1054 C 169.676 1054, 172.736 1051.616, 173.881 1047.471 C 175.853 1040.327, 171.917 1034, 165.500 1034 C 163.820 1034, 161.462 1034.688, 160.261 1035.529 M 181.364 1035.145 C 175.228 1038.187, 175.677 1050.381, 182.022 1053.009 C 185.660 1054.516, 190.500 1053.940, 190.500 1052 C 190.500 1051.088, 189.717 1050.593, 188.500 1050.737 C 184.646 1051.194, 182.242 1050, 181.005 1047.013 C 178.652 1041.332, 182.342 1036.533, 188.500 1037.263 C 189.717 1037.407, 190.500 1036.912, 190.500 1036 C 190.500 1034.156, 184.493 1033.594, 181.364 1035.145 M 53.557 1038.223 C 50.821 1042.129, 51.539 1043, 57.500 1043 C 62.265 1043, 63 1042.742, 63 1041.071 C 63 1036.273, 56.332 1034.261, 53.557 1038.223 M 98.573 1037.570 C 93.588 1042.555, 96.486 1052, 103 1052 C 107.800 1052, 110.969 1046.997, 109.607 1041.570 C 108.727 1038.064, 106.279 1036, 103 1036 C 101.429 1036, 99.436 1036.706, 98.573 1037.570 M 161.557 1039.223 C 158.532 1043.541, 160.749 1051, 165.057 1051 C 167.877 1051, 171 1047.438, 171 1044.223 C 171 1040.424, 168.393 1037, 165.500 1037 C 164.167 1037, 162.426 1037.982, 161.557 1039.223 M 601.385 1045.681 C 602.667 1049.482, 604.267 1052.500, 605 1052.500 C 605.733 1052.500, 607.333 1049.482, 608.615 1045.681 C 610.064 1041.386, 610.478 1039.007, 609.734 1039.255 C 609.084 1039.472, 607.899 1041.753, 607.101 1044.325 C 606.302 1046.896, 605.357 1049, 605 1049 C 604.643 1049, 603.698 1046.896, 602.899 1044.325 C 602.101 1041.753, 600.916 1039.472, 600.266 1039.255 C 599.522 1039.007, 599.936 1041.386, 601.385 1045.681 M 659.930 1040.584 C 658.325 1042.518, 659.571 1044.930, 663.098 1046.717 C 666.617 1048.500, 666.144 1050.529, 662.250 1050.353 C 658.837 1050.198, 657.888 1051.359, 660.582 1052.393 C 664.913 1054.055, 668.692 1051.757, 667.549 1048.156 C 667.211 1047.088, 665.581 1045.655, 663.929 1044.971 C 660.470 1043.538, 660.556 1041.570, 664.088 1041.349 C 668.324 1041.083, 668.528 1040.988, 667 1040 C 664.732 1038.534, 661.403 1038.809, 659.930 1040.584 M 698 1046 C 698 1050, 698.429 1053, 699 1053 C 699.550 1053, 700.016 1051.763, 700.036 1050.250 L 700.072 1047.500 702.324 1050.250 C 705.327 1053.918, 706.434 1053.740, 704.453 1049.909 C 702.973 1047.047, 702.983 1046.677, 704.582 1044.909 C 706.072 1043.263, 706.097 1043, 704.762 1043 C 703.911 1043, 702.955 1043.675, 702.638 1044.500 C 701.584 1047.247, 700 1046.047, 700 1042.500 C 700 1040.575, 699.550 1039, 699 1039 C 698.429 1039, 698 1042, 698 1046 M 754.113 1046.082 C 752.858 1049.978, 752.084 1053.417, 752.392 1053.726 C 753.003 1054.336, 753.046 1054.240, 755.989 1045.593 C 758.293 1038.826, 758.261 1039, 757.197 1039 C 756.755 1039, 755.367 1042.187, 754.113 1046.082 M 761.001 1040.499 C 759.928 1041.791, 760.172 1041.916, 762.757 1041.399 C 767.460 1040.458, 767.839 1042.731, 763.639 1046.693 C 758.515 1051.527, 758.832 1053, 765 1053 C 767.750 1053, 770 1052.550, 770 1052 C 770 1051.450, 768.087 1050.985, 765.750 1050.966 L 761.500 1050.933 765.250 1047.869 C 769.103 1044.722, 769.906 1042.306, 767.800 1040.200 C 766.138 1038.538, 762.495 1038.698, 761.001 1040.499 M 771 1040 C 771 1040.550, 772.350 1041, 774 1041 C 775.650 1041, 777 1041.240, 777 1041.533 C 777 1041.827, 775.845 1044.346, 774.433 1047.133 C 773.021 1049.919, 772.121 1052.454, 772.433 1052.766 C 772.745 1053.078, 773.172 1053.146, 773.381 1052.917 C 774.001 1052.240, 780 1040.105, 780 1039.529 C 780 1039.238, 777.975 1039, 775.500 1039 C 773.025 1039, 771 1039.450, 771 1040 M 782.571 1040.571 C 779.090 1044.053, 781.439 1053.025, 785.821 1052.985 C 789.322 1052.953, 790.500 1051.194, 790.500 1046 C 790.500 1042.579, 790.012 1040.618, 789 1039.979 C 786.778 1038.574, 784.344 1038.799, 782.571 1040.571 M 795.049 1040.440 C 794.392 1041.233, 793.956 1042.695, 794.081 1043.690 C 794.205 1044.686, 793.942 1046.349, 793.495 1047.386 C 791.863 1051.171, 797.214 1054.727, 800.473 1052.023 C 801.934 1050.810, 802.077 1042.463, 800.674 1040.250 C 799.605 1038.564, 796.520 1038.668, 795.049 1040.440 M 806 1040.918 C 806 1041.973, 805.743 1043.506, 805.429 1044.323 C 804.989 1045.471, 805.615 1045.775, 808.179 1045.655 C 811.096 1045.519, 811.500 1045.804, 811.500 1048 C 811.500 1050.184, 811.089 1050.481, 808.250 1050.353 C 804.650 1050.189, 803.881 1051.510, 807 1052.500 C 809.827 1053.397, 812.790 1052.237, 813.516 1049.949 C 814.471 1046.941, 813.120 1044.068, 810.433 1043.394 C 807.255 1042.596, 807.299 1041, 810.500 1041 C 811.875 1041, 813 1040.550, 813 1040 C 813 1039.450, 811.425 1039, 809.500 1039 C 806.716 1039, 806 1039.393, 806 1040.918 M 817.200 1040.200 C 814.090 1043.310, 817.489 1048.901, 821.544 1047.345 C 823 1046.786, 823.074 1046.993, 822.081 1048.848 C 821.448 1050.032, 820.045 1051, 818.965 1051 C 817.884 1051, 817 1051.450, 817 1052 C 817 1053.159, 819.988 1053.311, 821.600 1052.235 C 823.319 1051.087, 825 1047.372, 825 1044.721 C 825 1040.422, 819.921 1037.479, 817.200 1040.200 M 828.405 1041.170 C 826.695 1043.117, 826.679 1043.274, 828.250 1042.701 C 829.751 1042.154, 830 1042.699, 830 1046.531 C 830 1048.989, 829.550 1051, 829 1051 C 828.450 1051, 828 1051.450, 828 1052 C 828 1052.550, 829.350 1053, 831 1053 C 832.650 1053, 834 1052.550, 834 1052 C 834 1051.450, 833.550 1051, 833 1051 C 832.444 1051, 832 1048.333, 832 1045 C 832 1038.511, 831.349 1037.817, 828.405 1041.170 M 838.750 1043.593 C 835.281 1049.309, 835.308 1050, 839 1050 C 841 1050, 842 1050.500, 842 1051.500 C 842 1053.579, 843.675 1053.387, 844.181 1051.250 C 844.958 1047.973, 843.835 1038.999, 842.653 1039.032 C 842.019 1039.049, 840.263 1041.102, 838.750 1043.593 M 669.789 1042.207 C 668.861 1044.830, 670.201 1051.863, 671.742 1052.454 C 672.591 1052.780, 673.559 1052.750, 673.893 1052.387 C 674.227 1052.023, 673.938 1051.525, 673.250 1051.280 C 671.723 1050.734, 671.577 1045.308, 673.077 1044.808 C 673.685 1044.605, 673.303 1043.679, 672.200 1042.681 C 670.723 1041.344, 670.136 1041.229, 669.789 1042.207 M 783.411 1043.500 C 782.451 1047.324, 783.720 1051, 786 1051 C 787.259 1051, 788.187 1050.104, 788.589 1048.500 C 789.549 1044.676, 788.280 1041, 786 1041 C 784.741 1041, 783.813 1041.896, 783.411 1043.500 M 796.171 1042.648 C 796.364 1043.654, 797.346 1044.636, 798.352 1044.829 C 799.673 1045.084, 800.084 1044.673, 799.829 1043.352 C 799.636 1042.346, 798.654 1041.364, 797.648 1041.171 C 796.327 1040.916, 795.916 1041.327, 796.171 1042.648 M 818.380 1042.452 C 817.676 1044.286, 818.700 1046, 820.500 1046 C 822.339 1046, 823.147 1044.547, 822.396 1042.590 C 821.633 1040.601, 819.123 1040.515, 818.380 1042.452 M 633.715 1042.750 C 632.755 1044.535, 634.293 1051.898, 635.742 1052.454 C 636.591 1052.780, 637.559 1052.750, 637.893 1052.387 C 638.227 1052.023, 637.938 1051.525, 637.250 1051.280 C 635.697 1050.725, 635.581 1045, 637.122 1045 C 637.898 1045, 637.860 1044.536, 637 1043.500 C 635.645 1041.867, 634.349 1041.571, 633.715 1042.750 M 839.659 1045 C 837.925 1047.935, 837.931 1048, 839.943 1048 C 841.562 1048, 842 1047.361, 842 1045 C 842 1043.350, 841.872 1042, 841.716 1042 C 841.559 1042, 840.634 1043.350, 839.659 1045 M 613.200 1044.200 C 609.064 1048.336, 615.048 1055.200, 620 1052 C 621.528 1051.012, 621.324 1050.917, 617.088 1050.651 C 613.038 1050.397, 613.335 1048, 617.417 1048 C 619.690 1048, 621 1047.525, 621 1046.700 C 621 1044.753, 618.869 1043, 616.500 1043 C 615.345 1043, 613.860 1043.540, 613.200 1044.200 M 624.571 1044.571 C 621.351 1047.792, 623.786 1053, 628.512 1053 C 632.210 1053, 632.426 1051.167, 628.769 1050.815 C 626.033 1050.551, 625.500 1050.093, 625.500 1048 C 625.500 1045.907, 626.033 1045.449, 628.769 1045.185 C 630.567 1045.012, 631.778 1044.450, 631.460 1043.935 C 630.545 1042.455, 626.296 1042.847, 624.571 1044.571 M 641.571 1044.571 C 638.539 1047.604, 640.734 1053, 645 1053 C 647.386 1053, 650 1050.386, 650 1048 C 650 1045.614, 647.386 1043, 645 1043 C 643.979 1043, 642.436 1043.707, 641.571 1044.571 M 652 1048.125 C 652 1050.806, 652.450 1053, 653 1053 C 653.550 1053, 654 1051.411, 654 1049.469 C 654 1047.252, 654.559 1045.723, 655.500 1045.362 C 657.839 1044.464, 657.264 1043.250, 654.500 1043.250 C 652.175 1043.250, 652 1043.592, 652 1048.125 M 677.571 1044.571 C 674.539 1047.604, 676.734 1053, 681 1053 C 683.386 1053, 686 1050.386, 686 1048 C 686 1045.614, 683.386 1043, 681 1043 C 679.979 1043, 678.436 1043.707, 677.571 1044.571 M 689.571 1044.571 C 686.351 1047.792, 688.786 1053, 693.512 1053 C 697.210 1053, 697.426 1051.167, 693.769 1050.815 C 691.033 1050.551, 690.500 1050.093, 690.500 1048 C 690.500 1045.907, 691.033 1045.449, 693.769 1045.185 C 695.567 1045.012, 696.778 1044.450, 696.460 1043.935 C 695.545 1042.455, 691.296 1042.847, 689.571 1044.571 M 714.571 1044.571 C 711.351 1047.792, 713.786 1053, 718.512 1053 C 722.210 1053, 722.426 1051.167, 718.769 1050.815 C 716.033 1050.551, 715.500 1050.093, 715.500 1048 C 715.500 1045.907, 716.033 1045.449, 718.769 1045.185 C 720.567 1045.012, 721.778 1044.450, 721.460 1043.935 C 720.545 1042.455, 716.296 1042.847, 714.571 1044.571 M 724.571 1044.571 C 721.539 1047.604, 723.734 1053, 728 1053 C 730.386 1053, 733 1050.386, 733 1048 C 733 1045.614, 730.386 1043, 728 1043 C 726.979 1043, 725.436 1043.707, 724.571 1044.571 M 735 1048.212 C 735 1053.859, 736.740 1054.683, 737.190 1049.250 C 737.439 1046.238, 737.943 1045.437, 739.750 1045.180 C 741.767 1044.894, 742 1045.282, 742 1048.930 C 742 1054.039, 743.771 1054.304, 744.190 1049.258 C 744.407 1046.643, 745.027 1045.417, 746.250 1045.185 C 747.685 1044.913, 748 1045.588, 748 1048.927 C 748 1051.167, 748.450 1053, 749 1053 C 750.092 1053, 750.367 1047.119, 749.393 1044.582 C 748.675 1042.710, 745.894 1042.506, 744.200 1044.200 C 743.328 1045.072, 743 1045.086, 743 1044.253 C 743 1043.555, 741.435 1043.168, 739 1043.265 L 735 1043.425 735 1048.212 M 615 1046 C 615 1046.550, 615.900 1047, 617 1047 C 618.100 1047, 619 1046.550, 619 1046 C 619 1045.450, 618.100 1045, 617 1045 C 615.900 1045, 615 1045.450, 615 1046 M 642.389 1046.430 C 641.393 1049.025, 642.788 1051.169, 645.246 1050.820 C 646.898 1050.585, 647.500 1049.833, 647.500 1048 C 647.500 1046.167, 646.898 1045.415, 645.246 1045.180 C 643.893 1044.988, 642.750 1045.488, 642.389 1046.430 M 678.389 1046.430 C 677.393 1049.025, 678.788 1051.169, 681.246 1050.820 C 682.898 1050.585, 683.500 1049.833, 683.500 1048 C 683.500 1046.167, 682.898 1045.415, 681.246 1045.180 C 679.893 1044.988, 678.750 1045.488, 678.389 1046.430 M 725.389 1046.430 C 724.393 1049.025, 725.788 1051.169, 728.246 1050.820 C 729.898 1050.585, 730.500 1049.833, 730.500 1048 C 730.500 1046.167, 729.898 1045.415, 728.246 1045.180 C 726.893 1044.988, 725.750 1045.488, 725.389 1046.430 M 795.352 1047.524 C 794.563 1049.581, 796.393 1051.447, 798.433 1050.664 C 800.586 1049.838, 800.397 1048.283, 797.985 1046.992 C 796.386 1046.136, 795.843 1046.246, 795.352 1047.524 M 708 1052 C 708 1052.550, 708.450 1053, 709 1053 C 709.550 1053, 710 1052.550, 710 1052 C 710 1051.450, 709.550 1051, 709 1051 C 708.450 1051, 708 1051.450, 708 1052" stroke="none" fill="#000000" fill-rule="evenodd"/>
</svg>